<?xml version="1.0" encoding="UTF-8" standalone="no"?>
<svg viewBox="0 0 2000 2000" xmlns="http://www.w3.org/2000/svg" version="1.1">
  <path class="circle" d="M1001,1805 C1443,1805 1801,1447 1801,1005 C1801,563 1443,205 1001,205 C559,205 201,563 201,1005 C201,1447 559,1805 1001,1805 Z M1001,1805" fill="rgb(0,0,0)"></path>
  <g fill="rgb(215,215,215)">
    <path d="M641,1346 L641,1446 L1321,1446 L1321,1346 L641,1346 Z M641,1346" fill="rgb(255,255,255)"></path>
    <path d="M641,1186 L641,1286 L961,1286 L961,1186 L641,1186 Z M641,1186" fill="rgb(255,255,255)"></path>
    <path id="Triangle 5" d="M999,415 L1439,730 L1374,730 C1371,729 1368,729 1365,729 C1341,729 1321,752 1321,781 C1321,781 1321,781 1321,782 L1321,782 L1321,830 L641,830 L641,782 C641,753 621,730 596,730 C596,730 596,730 596,730 L596,730 L559,730 Z M999,526 L739,697 L1259,697 Z M999,526" fill="rgb(255,255,255)"></path>
    <path d="M641,1038 L641,1138 L1221,1138 L1221,1038 L641,1038 Z M641,1038" fill="rgb(255,255,255)"></path>
    <path d="M641,878 L641,978 L961,978 L961,878 L641,878 Z M641,878" fill="rgb(255,255,255)"></path>
  </g>
</svg>