<?xml version="1.0" encoding="UTF-8" standalone="no"?>
<svg viewBox="0 0 2000 2000" xmlns="http://www.w3.org/2000/svg" version="1.1">
    <title>Station pictograms</title>
    <description>Created with Sketch (http://www.bohemiancoding.com/sketch)</description>
    <defs>
        <linearGradient id="gradient-1" x1="50%" y1="0%" x2="50%" y2="100%">
            <stop offset="0%" style="stop-color:rgb(255,255,255); stop-opacity:100"></stop>
            <stop offset="100%" style="stop-color:rgb(0,0,0); stop-opacity:100"></stop>
        </linearGradient>
        <linearGradient id="gradient-2" x1="50%" y1="0%" x2="50%" y2="100%">
            <stop offset="0%" style="stop-color:rgb(255,255,255); stop-opacity:100"></stop>
            <stop offset="100%" style="stop-color:rgb(0,0,0); stop-opacity:100"></stop>
        </linearGradient>
        <linearGradient id="gradient-3" x1="50%" y1="0%" x2="50%" y2="100%">
            <stop offset="0%" style="stop-color:rgb(255,255,255); stop-opacity:100"></stop>
            <stop offset="100%" style="stop-color:rgb(0,0,0); stop-opacity:100"></stop>
        </linearGradient>
    </defs>
    <g fill="none" id="Main Page">
        <g fill="rgb(0,0,0)" id="circle"></g>
        <path id="circle" d="M998,1747 C1422,1747 1766,1403 1766,979 C1766,555 1422,211 998,211 C574,211 230,555 230,979 C230,1403 574,1747 998,1747 Z M998,1747" fill="rgb(0,0,0)"></path>
        <path id="circle decoration" d="" fill="rgb(0,0,0)"></path>
        <g fill="rgb(255,255,255)" id="Leeds pictogram"></g>
        <path id="Leeds pictogram" d="M686,540 L1006,540 L1006,1436 L686,1436 L686,540 Z M1211,808 C1207,817 1198,822 1184,822 C1155,822 1153,796 1141,787 C1129,778 1102,786 1092,764 C1088,754 1089,741 1095,730 C1086,728 1079,721 1075,709 C1066,681 1090,671 1095,657 C1100,643 1084,620 1101,603 C1110,596 1122,593 1134,596 C1134,587 1138,578 1149,570 C1172,553 1189,573 1204,573 C1219,573 1236,550 1257,562 C1266,568 1273,579 1274,591 C1283,587 1292,589 1303,597 C1327,613 1313,636 1318,650 C1322,664 1349,673 1344,697 C1342,708 1334,717 1323,723 C1329,729 1330,739 1326,752 C1318,779 1292,773 1280,782 C1268,791 1268,819 1244,822 C1232,824 1220,818 1211,808 M1089,1113 L1149,1025 L1141,979 L1149,977 L1160,1005 C1160,1005 1178,976 1183,956 C1188,937 1194,924 1196,916 C1198,908 1199,886 1199,886 L1213,902 L1226,891 C1231,911 1218,937 1218,943 C1218,948 1249,933 1249,939 C1249,945 1211,964 1209,967 C1207,969 1198,1002 1188,1022 C1178,1042 1149,1081 1149,1081 L1175,1084 L1194,1076 L1134,1102 L1108,1141 L1425,1137 L1425,1436 L1034,1436 L1034,1405 C1034,1405 1033,1395 1034,1375 C1035,1355 1041,1293 1056,1244 C1070,1194 1108,1141 1108,1141 L1061,1159 M1214,890 C1210,887 1199,879 1193,872 C1186,864 1185,854 1185,854 C1185,854 1171,862 1162,861 C1160,861 1158,861 1156,860 C1153,861 1150,860 1147,858 C1143,857 1140,854 1136,850 C1128,839 1124,826 1114,821 C1104,816 1076,808 1069,797 C1061,785 1064,770 1064,770 C1064,770 1055,772 1045,769 C1036,766 1021,757 1021,757 C1023,754 1027,741 1032,733 C1037,724 1046,720 1046,720 C1046,720 1035,709 1033,700 C1032,698 1032,696 1031,694 C1030,691 1030,688 1031,685 C1031,681 1032,676 1035,671 C1043,660 1054,653 1056,642 C1057,630 1048,608 1058,591 C1065,577 1084,575 1084,575 L1084,556 C1084,547 1087,534 1087,534 C1091,534 1105,534 1114,536 C1125,539 1131,546 1131,546 C1131,546 1138,531 1146,527 C1147,526 1149,525 1151,524 C1153,521 1156,520 1159,520 C1163,519 1168,519 1174,520 C1186,524 1198,533 1208,530 C1218,527 1239,515 1257,519 C1274,522 1278,543 1278,543 C1278,543 1284,535 1295,532 C1303,529 1320,527 1320,527 C1322,531 1326,544 1327,553 C1328,564 1323,572 1323,572 C1323,572 1339,574 1345,580 C1347,582 1348,583 1350,584 C1353,586 1355,589 1356,591 C1358,595 1360,599 1360,605 C1361,618 1356,631 1361,641 C1367,651 1383,658 1387,678 C1390,698 1371,712 1371,712 C1371,712 1380,715 1387,724 C1392,731 1399,747 1399,747 C1396,749 1385,757 1376,761 C1366,765 1357,763 1357,763 C1357,763 1362,784 1349,797 C1336,809 1311,810 1303,818 C1295,826 1292,846 1275,853 C1257,859 1239,853 1239,853 C1239,853 1238,862 1232,871 C1226,878 1214,890 1214,890 L1067,558 M1342,607 C1341,604 1341,603 1340,602 C1337,597 1332,591 1325,588 C1314,583 1298,585 1298,585 C1298,585 1315,562 1309,546 C1293,546 1277,570 1277,570 C1277,570 1273,555 1263,546 C1256,540 1244,537 1237,539 C1229,541 1223,548 1206,552 C1190,557 1176,540 1170,538 L1165,538 C1159,539 1151,543 1146,548 C1138,557 1133,572 1133,572 C1133,572 1118,550 1102,550 C1097,566 1114,586 1114,586 C1114,586 1099,588 1088,594 C1079,599 1073,609 1072,617 C1072,625 1077,633 1076,651 C1075,667 1054,675 1051,681 C1050,683 1050,684 1050,685 C1049,692 1050,699 1053,706 C1059,717 1073,724 1073,724 C1073,724 1046,733 1041,749 C1055,759 1082,749 1082,749 C1082,749 1076,763 1079,776 C1081,786 1089,794 1097,797 C1104,799 1112,798 1129,805 C1144,811 1145,833 1150,837 C1152,839 1153,840 1154,840 C1159,843 1167,844 1174,843 C1187,841 1198,830 1198,830 C1198,830 1198,858 1212,868 C1225,858 1224,829 1224,829 C1224,829 1236,839 1249,841 C1259,842 1270,838 1275,831 C1279,825 1279,813 1291,802 C1303,790 1314,794 1326,789 C1337,784 1342,780 1343,770 C1344,758 1338,743 1338,743 C1338,743 1365,752 1378,742 C1373,726 1345,718 1345,718 C1345,718 1358,710 1363,698 C1367,689 1367,677 1362,671 C1358,664 1349,660 1340,646 C1331,632 1342,613 1342,607 M1133,707 C1132,696 1136,682 1145,679 C1155,676 1177,682 1177,682 C1176,688 1177,694 1178,699 C1180,704 1183,709 1187,712 C1187,712 1174,731 1164,734 C1156,737 1145,731 1140,722 C1122,727 1099,738 1107,753 C1115,768 1144,768 1153,774 C1162,780 1165,801 1184,805 C1193,807 1198,797 1200,787 C1199,780 1199,773 1201,766 C1191,764 1179,755 1179,746 C1179,735 1192,717 1192,717 C1197,719 1203,721 1208,721 C1214,721 1219,719 1223,717 C1223,717 1237,735 1237,746 C1237,754 1228,762 1218,765 C1218,783 1222,808 1238,805 C1254,801 1263,774 1271,767 C1280,760 1301,764 1310,747 C1314,739 1308,732 1301,727 C1293,727 1285,725 1278,720 C1273,728 1264,733 1257,732 C1246,729 1232,712 1232,712 C1235,707 1238,702 1239,697 C1241,692 1241,686 1239,681 C1239,681 1260,672 1271,675 C1280,677 1286,693 1284,704 C1302,710 1324,713 1326,697 C1328,680 1304,664 1301,653 C1297,643 1306,625 1293,610 C1288,604 1279,607 1272,613 C1269,620 1265,626 1259,631 C1266,639 1269,651 1265,657 C1259,667 1238,674 1238,674 C1234,670 1231,665 1226,662 C1222,659 1216,658 1211,658 C1211,657 1210,635 1216,626 C1221,618 1235,617 1245,621 C1256,607 1265,587 1251,580 C1236,573 1213,590 1202,590 C1191,591 1176,576 1158,584 C1151,587 1151,596 1155,605 C1161,610 1165,616 1168,623 C1178,619 1192,619 1197,626 C1204,634 1204,657 1204,657 C1199,658 1194,660 1189,664 C1185,667 1182,671 1180,676 C1180,676 1158,670 1151,662 C1146,655 1149,642 1155,634 C1144,619 1128,603 1117,614 C1105,626 1114,654 1111,664 C1108,675 1089,684 1091,704 C1092,712 1101,714 1110,714 C1117,709 1124,707 1133,707" fill="rgb(255,255,255)"></path>
        <path id="Leeds pictogram decoration" d="" fill="rgb(255,255,255)"></path>
    </g>
</svg>