<?xml version="1.0" encoding="UTF-8" standalone="no"?>
<svg viewBox="0 0 2000 2000" xmlns="http://www.w3.org/2000/svg" version="1.1">
  <path class="circle" d="M1000,1800 C1442,1800 1800,1442 1800,1000 C1800,558 1442,200 1000,200 C558,200 200,558 200,1000 C200,1442 558,1800 1000,1800 Z M1000,1800" fill="rgb(0,0,0)"></path>
  <path d="M474,624 L1522,635 L1519,739 C1519,739 1490,739 1442,801 C1394,862 1426,1429 1426,1429 L1292,1426 L1311,830 C1311,830 1281,728 1188,728 C1094,728 1054,819 1054,819 L1057,1426 L926,1424 L942,825 C942,825 920,723 819,723 C717,723 688,817 688,817 L693,1424 L565,1424 L570,819 C570,819 551,745 474,723 L474,624 Z M474,624" fill="rgb(255,255,255)"></path>
  <path d="M1527,577 L1527,616 L817,608 C817,608 817,570 850,570 C884,570 1527,577 1527,577 Z M1527,577" fill="rgb(255,255,255)"></path>
</svg>