<?xml version="1.0" encoding="UTF-8" standalone="no"?>
<svg viewBox="0 0 2000 2000" xmlns="http://www.w3.org/2000/svg" version="1.1">
    <title>Victoria</title>
    <description>Created with Sketch (http://www.bohemiancoding.com/sketch)</description>
    <defs>
        <linearGradient id="gradient-1" x1="50%" y1="0%" x2="50%" y2="100%">
            <stop offset="0%" style="stop-color:rgb(255,255,255); stop-opacity:100"></stop>
            <stop offset="100%" style="stop-color:rgb(0,0,0); stop-opacity:100"></stop>
        </linearGradient>
        <linearGradient id="gradient-2" x1="50%" y1="0%" x2="50%" y2="100%">
            <stop offset="0%" style="stop-color:rgb(255,255,255); stop-opacity:100"></stop>
            <stop offset="100%" style="stop-color:rgb(0,0,0); stop-opacity:100"></stop>
        </linearGradient>
        <linearGradient id="gradient-3" x1="50%" y1="0%" x2="50%" y2="100%">
            <stop offset="0%" style="stop-color:rgb(255,255,255); stop-opacity:100"></stop>
            <stop offset="100%" style="stop-color:rgb(0,0,0); stop-opacity:100"></stop>
        </linearGradient>
        <linearGradient id="gradient-4" x1="50%" y1="0%" x2="50%" y2="100%">
            <stop offset="0%" style="stop-color:rgb(255,255,255); stop-opacity:100"></stop>
            <stop offset="100%" style="stop-color:rgb(0,0,0); stop-opacity:100"></stop>
        </linearGradient>
        <linearGradient id="gradient-5" x1="50%" y1="0%" x2="50%" y2="100%">
            <stop offset="0%" style="stop-color:rgb(255,255,255); stop-opacity:100"></stop>
            <stop offset="100%" style="stop-color:rgb(0,0,0); stop-opacity:100"></stop>
        </linearGradient>
        <linearGradient id="gradient-6" x1="50%" y1="0%" x2="50%" y2="100%">
            <stop offset="0%" style="stop-color:rgb(255,255,255); stop-opacity:100"></stop>
            <stop offset="100%" style="stop-color:rgb(0,0,0); stop-opacity:100"></stop>
        </linearGradient>
    </defs>
    <g fill="none" id="Main Page">
        <g fill="rgb(0,0,0)" id="Oval 1"></g>
        <path id="Oval 1" d="M1000,1800 C1442,1800 1800,1442 1800,1000 C1800,558 1442,200 1000,200 C558,200 200,558 200,1000 C200,1442 558,1800 1000,1800 Z M1000,1800" fill="rgb(0,0,0)"></path>
        <path id="Oval 1 decoration" d="" fill="rgb(0,0,0)"></path>
        <g fill="rgb(255,255,255)" id="Path 19"></g>
        <path id="Path 19" d="M622,1090 L712,1090 L764,1201 L994,1498 C994,1498 1085,1368 1181,1282 C1278,1197 1300,1109 1300,1109 L1384,1123 C1384,1123 1386,1169 1304,1282 C1211,1368 1199,1370 1114,1498 C1055,1588 1031,1648 1015,1718 L983,1718 C983,1593 897,1498 796,1368 C694,1282 654,1164 622,1090 Z M622,1090" fill="rgb(255,255,255)"></path>
        <path id="Path 19 decoration" d="" fill="rgb(255,255,255)"></path>
        <g fill="rgb(255,255,255)" id="Path 20"></g>
        <path id="Path 20" d="M878,1243 C790,1171 763,1080 763,1080 L899,997 C899,997 907,930 900,930 C747,922 721,853 721,812 C721,752 694,747 694,747 L747,660 L747,562 L790,489 L790,363 L813,355 L883,389 L907,415 L1059,415 L1130,469 L1148,483 L1184,467 L1214,469 L1236,503 C1236,503 1263,523 1293,529 C1293,549 1262,603 1302,610 C1270,660 1228,720 1228,720 C1228,720 1214,760 1228,773 C1248,783 1251,791 1315,759 C1381,699 1417,693 1443,685 C1487,693 1479,695 1498,705 C1527,747 1635,752 1635,752 L1634,776 C1634,776 1603,820 1558,826 C1514,832 1462,765 1404,767 C1346,768 1326,821 1243,832 C1243,846 1266,895 1284,946 C1310,988 1326,1005 1357,1012 C1398,1045 1468,1016 1468,1016 L1521,1037 L1523,1061 L1475,1083 C1475,1083 1410,1108 1348,1081 C1265,1061 1277,1037 1238,981 C1214,877 1165,832 1130,846 C1074,898 1048,1016 1235,1076 C1194,1239 1071,1265 1007,1399 C948,1338 949,1312 878,1243 Z M878,1243" fill="rgb(255,255,255)"></path>
        <path id="Path 20 decoration" d="" fill="rgb(255,255,255)"></path>
    </g>
</svg>