<?xml version="1.0" encoding="UTF-8" standalone="no"?>
<svg viewBox="0 0 1000 1000" xmlns="http://www.w3.org/2000/svg" version="1.1">
  <path class="circle" d="M500,900 C700,900 900,700 900,500 900,280 700,100 500,100 280,100 100,280 100,500 100,700 280,900 500,900" fill="rgb(0,0,0)"></path>
  <path d="M480,270 L575,270 C630,270 674,315 674,370 C674,425 630,470 575,470 L480,470 L480,455 L570,455 C617,452 658,418 658,370 C658,322 617,288 570,285 L480,285 L480,270 L480,270 Z M480,300 L565,300 C603,300 635,331 635,370 C635,408 603,440 565,440 L480,440 L480,425 L565,425 C595,425 620,400 620,370 C620,339 595,315 565,315 L480,315 L480,300 L480,300 Z M480,485 L575,485 C630,485 691,526 691,595 C691,664 630,710 575,710 L480,710 L480,695 L570,695 C617,692 675,658 675,595 C675,532 617,503 570,500 L480,500 L480,485 L480,485 Z M480,515 L565,515 C603,515 654,541 654,598 C654,655 603,675 565,675 L480,675 L480,660 L565,660 C595,660 639,642 639,598 C639,553 595,530 565,530 L480,530 L480,515 L480,515 Z M300,425 L360,425 L360,440 L300,440 L300,425 L300,425 Z M300,455 L360,455 L360,470 L300,470 L300,455 L300,455 Z M300,485 L360,485 L360,500 L300,500 L300,485 L300,485 Z M300,515 L360,515 L360,530 L300,530 L300,515 L300,515 Z M340,260 L470,260 L470,710 L340,710 L340,690 L342,690 C356,690 370,676 370,662 L370,318 C370,304 356,290 342,290 L340,290 L340,260 L340,260 Z M340,260" fill="rgb(255,255,255)"></path>
</svg>