<?xml version="1.0" encoding="UTF-8" standalone="no"?>
<svg viewBox="0 0 1000 1000" xmlns="http://www.w3.org/2000/svg" version="1.1">
  <path class="circle" d="M500,900 C700,900 900,700 900,500 900,280 700,100 500,100 280,100 100,280 100,500 100,700 280,900 500,900" fill="rgb(0,0,0)"></path>
  <path d="M340,260 L460,260 460,700 340,700 340,680 Q370,680 370,650 L370,315 Q370,280 340,280 Z" fill="rgb(255,255,255)"></path>
  <path d="M475,260 l55,0 a60,60 0 0,1 0,140 L475,400 l0,-15 l55,0 a55,55 0 0,0 55,-55 a55,55 0 0,0 -55,-55 L475,275  Z" fill="rgb(255,255,255)"></path>

</svg>