<?xml version="1.0" encoding="UTF-8" standalone="no"?>
<svg viewBox="0 0 1000 1000" xmlns="http://www.w3.org/2000/svg" version="1.1">
  <path class="circle" d="M500,900 C700,900 900,700 900,500 900,280 700,100 500,100 280,100 100,280 100,500 100,700 280,900 500,900" fill="rgb(0,0,0)"></path>
  <path d="M502,705 C529,705 555,700 578,691 L605,762 C573,774 538,781 502,781 C344,781 217,653 217,495 C217,337 344,210 502,210 C535,210 567,215 596,225 L572,297 C550,290 527,285 502,285 C386,285 292,379 292,495 C292,611 386,705 502,705 L502,705 Z M502,705" fill="rgb(255,255,255)"></path>
  <path d="M472,548 C460,543 450,533 444,520 C398,523 366,539 340,556 C340,536 334,514 320,497 C334,480 340,457 340,437 C366,454 398,470 444,473 C450,461 460,451 472,445 C469,399 453,367 436,341 C456,341 479,335 496,321 C513,335 535,341 555,341 C538,367 522,399 519,445 C531,451 542,461 547,473 C593,470 625,454 651,437 C651,457 657,480 671,497 C657,514 651,536 651,556 C625,539 593,523 547,520 C542,533 531,543 519,548 C522,595 538,627 555,653 C535,653 513,659 496,673 C479,659 456,653 436,653 C453,627 469,595 472,548 L472,548 Z M496,516 C507,516 516,507 516,496 C516,485 507,476 496,476 C485,476 476,485 476,496 C476,507 485,516 496,516 L496,516 Z M496,516" fill="rgb(255,255,255)"></path>
</svg>