<?xml version="1.0" encoding="UTF-8" standalone="no"?>
<svg viewBox="0 0 1000 1000" xmlns="http://www.w3.org/2000/svg" version="1.1">
  <path d="M654,901 L370,901 L340,482 L683,482 Z M710,457 C710,463 704,468 698,468 L317,468 C310,468 305,463 305,458 C305,453 310,448 316,446 L335,440 C341,438 346,432 346,425 L346,417 C346,411 351,406 358,406 L657,406 C664,406 669,411 669,417 L669,425 C669,432 674,438 680,440 L698,444 C704,446 710,452 710,457 Z M393,131 C403,119 420,137 410,149 C402,159 393,175 390,190 C388,205 390,221 401,233 C410,242 422,250 428,262 C438,282 440,304 431,325 C426,338 418,348 412,361 C406,375 385,363 391,348 C398,334 409,323 411,306 C418,270 383,258 371,229 C356,197 371,157 393,131 Z M491,131 C501,119 518,137 508,149 C500,159 491,175 488,190 C486,205 488,221 499,233 C508,242 520,250 526,262 C536,282 538,304 529,325 C524,338 516,348 510,361 C504,375 483,363 489,348 C496,334 507,323 509,306 C516,270 481,258 469,229 C454,197 469,157 491,131 Z M581,131 C591,119 608,137 598,149 C590,159 581,175 578,190 C576,205 578,221 589,233 C598,242 610,250 616,262 C626,282 628,304 619,325 C614,338 606,348 600,361 C594,375 573,363 579,348 C586,334 597,323 599,306 C606,270 571,258 559,229 C544,197 559,157 581,131 Z M581,131" fill="rgb(0,0,0)"></path>
</svg>