<?xml version="1.0" encoding="UTF-8" standalone="no"?>
<svg viewBox="0 0 1000 1000" xmlns="http://www.w3.org/2000/svg" version="1.1">
  <path class="circle" d="M500,900 C700,900 900,700 900,500 900,280 700,100 500,100 280,100 100,280 100,500 100,700 280,900 500,900" fill="rgb(0,0,0)"></path>
  <path id="Shape" d="M417,682 C460,661 495,657 527,651 C544,675 565,689 589,689 C615,689 640,670 658,640 L787,640 C735,746 626,820 500,820 C323,820 180,676 180,500 C180,323 323,180 500,180 C630,180 742,258 792,370 L657,370 C639,340 615,322 589,322 C565,322 544,336 527,360 C496,353 415,330 415,330 C400,315 383,306 364,306 C303,306 254,395 254,506 C254,616 303,706 364,706 C384,706 417,682 417,682 L417,682 Z M367,694 C424,694 471,610 471,506 C471,402 424,318 367,318 C310,318 264,402 264,506 C264,610 310,694 367,694 L367,694 Z M588,678 C572,678 558,671 545,659 C579,656 606,589 606,506 C606,421 578,353 543,353 L542,353 C556,339 571,331 588,331 C639,331 681,408 681,504 C681,600 639,678 588,678 L588,678 Z M365,627 C341,627 322,573 322,506 C322,439 341,385 365,385 C389,385 408,439 408,506 C408,573 389,627 365,627 L365,627 Z M365,627" fill="rgb(255,255,255)"></path>
</svg>