<?xml version="1.0" encoding="UTF-8" standalone="no"?>
<svg viewBox="0 0 1000 1000" xmlns="http://www.w3.org/2000/svg" version="1.1">
  <path class="circle" d="M500,900 C700,900 900,700 900,500 900,280 700,100 500,100 280,100 100,280 100,500 100,700 280,900 500,900" fill="rgb(0,0,0)"></path>
  <path d="M435,220 L460,220 L460,246 L485,246 L485,220 L515,220 L515,246 L535,246 L535,220 L565,220 L565,300 L580,300 L580,258 C587,259 593,261 600,264 L600,310 L620,310 L620,276 C625,280 630,284 635,289 L635,325 L645,325 L645,300 C649,306 653,312 657,318 L657,341 C659,370 660,386 663,399 C620,381 570,370 516,370 L440,370 L440,420 L524,420 C579,420 630,433 674,456 C679,478 684,500 691,522 C641,502 581,490 517,490 L430,490 L430,550 L526,550 C596,550 661,564 713,589 C729,630 747,669 767,705 C703,665 607,640 499,640 C392,640 296,665 232,705 C289,602 332,460 343,331 L343,318 C346,312 350,306 355,300 L355,325 L365,325 L365,289 C369,284 374,280 380,276 L380,310 L400,310 L400,264 C406,261 413,259 420,258 L420,300 L435,300 L435,220 Z M435,220" fill="rgb(255,255,255)"></path>

</svg>