<?xml version="1.0" encoding="UTF-8" standalone="no"?>
<svg viewBox="0 0 1000 1000" xmlns="http://www.w3.org/2000/svg" version="1.1">
  <path d="M897,311 L832,811 L611,811 L546,311 L816,311 L869,131 L899,139 L848,311 Z M511,605 L116,605 C116,605 108,533 223,533 L405,533 C519,533 511,605 511,605 Z M116,734 L511,734 C511,734 519,807 405,807 L223,807 C108,807 116,734 116,734 Z M496,699 L134,699 C115,699 100,684 100,666 C100,648 115,633 134,633 L496,633 C515,633 530,648 530,666 C530,684 515,699 496,699 Z M496,699" fill="rgb(0,0,0)"></path>
</svg>