<?xml version="1.0" encoding="UTF-8" standalone="no"?>
<svg viewBox="0 0 1000 1000" xmlns="http://www.w3.org/2000/svg" version="1.1">
  <path class="circle" d="M500,900 C700,900 900,700 900,500 900,280 700,100 500,100 280,100 100,280 100,500 100,700 280,900 500,900" fill="rgb(0,0,0)"></path>
  <path d="M440,520 L680,520 L680,620 L440,620 L440,870 L310,740 L310,410 L310,320 L310,280 L340,220 L370,280 L370,320 L381,320 L381,200 L331,200 L331,160 L381,160 L381,150 L391,150 L391,160 L391,200 L391,320 L410,320 L410,261 L440,201 L470,261 L470,331 L545,331 L545,301 L545,300 L545,300 L575,241 L604,300 L605,300 L605,301 L605,350 L680,350 L680,280 L710,220 L740,280 L740,350 L740,410 L740,440 L440,440 Z M440,520" fill="rgb(255,255,255)"></path>
</svg>