<?xml version="1.0" encoding="UTF-8" standalone="no"?>
<svg viewBox="0 0 1000 1000" xmlns="http://www.w3.org/2000/svg" version="1.1">
  <path class="circle" d="M500,900 C700,900 900,700 900,500 900,280 700,100 500,100 280,100 100,280 100,500 100,700 280,900 500,900" fill="rgb(0,0,0)"></path>
  <path d="M550,380 L630,380 L630,820 L562,820 C491,824 413,780 349,709 C279,630 235,528 235,432 C235,363 266,305 319,265 C365,231 424,212 480,212 L550,212 L550,292 L480,292 C441,292 399,305 368,329 C334,355 315,389 315,432 C315,507 351,591 408,655 C455,708 508,738 550,740 L550,435 L550,420 L550,380 L550,380 Z M455,380 L500,380 L500,420 L455,420 L455,380 L455,380 Z M515,380 L535,380 L535,420 L515,420 L515,380 L515,380 Z M535,435 L535,460 L515,460 L515,435 L535,435 L535,435 Z M500,460 L455,460 L455,435 L500,435 L500,460 L500,460 Z M500,460" fill="rgb(255,255,255)"></path>
</svg>