<?xml version="1.0" encoding="UTF-8" standalone="no"?>
<svg viewBox="0 0 1000 1000" xmlns="http://www.w3.org/2000/svg" version="1.1">
  <path class="circle" d="M500,900 C700,900 900,700 900,500 900,280 700,100 500,100 280,100 100,280 100,500 100,700 280,900 500,900" fill="rgb(0,0,0)"></path>
  <path d="M500,710 C584,710 656,661 690,590 L775,590 C738,706 628,790 500,790 C340,790 210,660 210,500 C210,340 340,210 500,210 C579,210 651,242 703,293 L647,350 C609,313 557,290 500,290 C384,290 290,384 290,500 C290,616 384,710 500,710 L500,710 Z M500,710" fill="rgb(255,255,255)"></path>
  <path d="M810,440 C839,428 618,531 559,660 C559,586 586,539 642,490 L500,490 L500,440 L810,440 Z M810,440" fill="rgb(255,255,255)"></path>
</svg>