<?xml version="1.0" encoding="UTF-8" standalone="no"?>
<svg viewBox="0 0 1000 1000" xmlns="http://www.w3.org/2000/svg" version="1.1">
  <path class="circle" d="M500,900 C700,900 900,700 900,500 900,280 700,100 500,100 280,100 100,280 100,500 100,700 280,900 500,900" fill="rgb(0,0,0)"></path>
  <path d="M346,400 C346,400 362,414 364,416 C366,418 368,422 368,422 C368,422 352,411 350,407 L346,400 L346,400 Z M331,370 C331,370 352,388 355,391 C357,393 360,399 360,399 C360,399 339,384 336,379 C333,375 331,370 331,370 L331,370 Z M280,230 L480,230 L480,610 L448,610 C446,608 443,605 439,603 C430,599 427,603 425,602 C418,588 402,525 402,521 C402,517 442,498 456,476 C470,454 467,433 463,420 C459,407 438,386 429,377 C424,372 418,365 415,359 C413,353 414,348 414,347 C415,340 418,334 427,335 C436,334 445,341 453,347 C453,336 450,332 448,327 C445,323 441,321 441,321 C438,318 429,315 424,315 L418,315 C413,315 406,317 402,321 C398,324 392,330 390,339 L395,335 C397,338 395,350 398,362 C402,373 421,395 424,406 C427,416 425,423 421,432 C418,433 413,435 406,433 C406,426 407,424 404,417 C402,409 393,402 385,394 C377,386 364,365 358,353 C352,342 332,313 328,291 C325,296 328,313 330,318 C331,323 340,346 340,346 C340,346 330,337 328,335 C327,333 319,324 313,318 C307,312 286,273 286,261 C285,263 284,266 286,278 C283,274 281,270 280,267 L280,230 L280,230 Z M414,610 L377,610 C376,608 375,606 374,605 C371,603 369,605 366,602 C363,599 366,590 366,590 C366,590 372,555 375,549 C378,543 392,528 392,528 C392,528 409,568 416,602 C416,604 415,607 414,610 L414,610 Z M348,610 L280,610 L280,313 C286,327 301,347 301,351 L301,367 C301,371 305,377 305,383 C305,388 307,390 307,397 C307,403 311,412 315,420 C319,429 325,444 328,450 C331,455 348,470 352,476 C357,482 355,484 354,489 C353,494 350,496 348,501 C342,512 327,530 301,543 C331,535 340,528 340,528 C340,528 340,535 324,549 C342,540 344,535 347,535 C349,535 351,539 351,539 C351,539 350,546 344,556 C354,549 362,537 362,537 L366,543 C366,543 362,561 360,570 C357,580 358,598 354,602 C353,603 350,607 348,610 L348,610 Z M280,630 L730,630 L730,730 C730,752 710,770 685,770 C660,770 640,752 640,730 C640,752 620,770 595,770 C570,770 550,752 550,730 C550,752 530,770 505,770 C480,770 460,752 460,730 C460,752 440,770 415,770 C390,770 370,752 370,730 C370,752 350,770 325,770 C300,770 280,752 280,730 L280,630 Z" fill="rgb(255,255,255)"></path>

</svg>