<?xml version="1.0" encoding="UTF-8" standalone="no"?>
<svg viewBox="0 0 1000 1000" xmlns="http://www.w3.org/2000/svg" version="1.1">
  <path id="Shape" d="M499,653 C584,653 653,585 653,500 C653,415 584,346 499,346 C414,346 345,415 345,500 C345,585 414,653 499,653 M898,495 C899,496 899,497 899,497 L899,498 L899,500 L899,501 L899,503 C898,504 898,504 898,504 C897,511 894,516 890,521 C882,531 872,540 863,549 C813,599 756,643 694,675 C654,695 611,712 567,720 C518,728 469,728 421,718 C337,700 261,655 194,602 C163,578 133,551 108,521 C96,508 96,492 108,479 C116,469 125,459 134,450 C184,401 241,357 304,325 C344,304 387,288 431,280 C480,271 529,272 577,282 C661,300 737,344 803,397 C834,422 865,448 890,479 C894,483 897,489 898,495 M499,553 C473,553 451,530 451,501 C451,473 473,449 499,449 C526,449 547,473 547,501 C547,530 526,553 499,553" fill="rgb(0,0,0)"></path>
</svg>