<?xml version="1.0" encoding="UTF-8" standalone="no"?>
<svg viewBox="0 0 1000 1000" xmlns="http://www.w3.org/2000/svg" version="1.1">
  <path class="circle" d="M500,900 C700,900 900,700 900,500 900,280 700,100 500,100 280,100 100,280 100,500 100,700 280,900 500,900" fill="rgb(0,0,0)"></path>
  <path d="M470,200 L470,712 C526,712 569,686 600,642 C601,640 602,639 603,638 C604,637 605,636 605,635 C618,615 628,594 636,570 C642,553 647,535 649,520 L660,520 L672,520 L730,520 L730,540 L730,760 L730,780 L470,780 L450,780 L300,780 L300,200 Z M686,759 L709,759 L709,738 C703,747 696,754 686,759 Z M420,220 L420,710 L440,710 L440,220 Z M470,731 L470,759 L593,759 C585,755 577,749 570,742 C561,733 554,722 551,712 C527,725 500,731 470,731 Z M365,220 L365,710 L390,710 L390,220 Z M569,702 C569,705 570,707 571,710 C573,716 578,723 584,728 C598,744 620,752 646,751 C671,749 687,739 696,722 C703,709 706,694 705,680 C704,670 699,658 692,650 C682,640 669,634 653,634 C639,634 629,638 622,645 C622,645 622,645 622,646 C620,649 618,652 616,654 C613,661 611,668 611,672 C611,678 613,686 617,692 C622,699 630,704 640,704 C650,704 653,701 655,695 C656,690 655,684 654,680 C653,679 652,677 652,675 C652,669 657,665 662,665 C666,665 669,667 671,670 C675,678 677,690 674,699 C671,714 659,724 640,724 C623,724 609,716 600,703 C596,696 594,689 592,682 C585,690 577,696 569,702 Z M639,615 C644,614 648,614 653,614 C675,614 693,622 706,636 C707,637 708,638 709,640 L709,540 L667,540 C663,552 659,565 655,577 C650,590 645,603 639,615 Z M420,730 L420,760 L440,760 L440,730 Z M365,730 L365,760 L390,760 L390,730 Z M365,730" fill="rgb(255,255,255)"></path>
</svg>