<?xml version="1.0" encoding="UTF-8" standalone="no"?>
<svg viewBox="0 0 1000 1000" xmlns="http://www.w3.org/2000/svg" version="1.1">
  <path d="M239,819 L180,819 C139,819 100,789 100,738 L100,367 C100,322 138,287 180,287 L239,287 Z M606,289 L714,289 L714,822 L275,822 L275,289 L382,289 L382,213 C382,185 407,168 437,168 L551,168 C581,168 606,185 606,213 Z M761,819 L761,287 L820,287 C861,287 900,322 899,367 C900,368 899,738 899,738 C900,789 860,819 820,819 Z M565,289 L565,211 L422,211 L422,289 Z M565,289" fill="rgb(0,0,0)"></path>
</svg>