<?xml version="1.0" encoding="UTF-8" standalone="no"?>
<svg viewBox="0 0 1000 1000" xmlns="http://www.w3.org/2000/svg" version="1.1">
  <path d="M180,820 C140,820 100,790 100,740 L100,370 C100,320 140,290 180,290 L240,290 L240,820 Z M620,290 L720,290 L720,820 L280,820 L280,290 L380,290 L380,210 C380,185 395,170 420,170 C420,170 580,170 580,170 C605,170 620,185 620,210 Z M820,820 L760,820 L760,290 L820,290 C860,290 900,320 900,365 L900,740 C900,790 860,820 820,820 Z M420,290 L580,290 L580,210 L420,209 Z" fill="rgb(0,0,0)"></path>
</svg>