<?xml version="1.0" encoding="UTF-8" standalone="no"?>
<svg viewBox="0 0 1000 1000" xmlns="http://www.w3.org/2000/svg" version="1.1">
  <path class="circle" d="M500,900 C700,900 900,700 900,500 900,280 700,100 500,100 280,100 100,280 100,500 100,700 280,900 500,900" fill="rgb(0,0,0)"></path>
  <path d="M770,340 L770,390 C770,390 710,390 710,440 L710,750 L650,750 L650,440 C650,430 640,390 590,390 C540,390 530,430 530,440 L530,750 L470,750 L470,440 C470,430 460,390 410,390 C360,390 350,420 350,440 L350,750 L290,750 L290,440 C290,390 230,390 230,390 L230,340 M770,329 L400,330 C400,320 410,310 430,310 L770,310" fill="rgb(255,254,254)"></path>
</svg>