<?xml version="1.0" encoding="UTF-8" standalone="no"?>
<svg viewBox="0 0 1000 1000" xmlns="http://www.w3.org/2000/svg" version="1.1">
  <path d="M479,100 L519,100 L519,280 L557,243 L585,271 L500,357 L415,272 L443,244 L479,280 Z M500,625 C431,625 375,569 375,500 C375,431 431,375 500,375 C569,375 625,431 625,500 C625,569 569,625 500,625 Z M480,900 L480,719 L444,755 L416,727 L501,642 L586,728 L558,756 L520,719 L520,900 Z M101,520 L101,480 L281,480 L244,443 L272,415 L358,500 L273,585 L245,556 L281,520 Z M899,520 L718,520 L754,556 L726,585 L641,500 L727,415 L755,443 L718,480 L899,480 Z M899,520" fill="rgb(0,0,0)"></path>
</svg>