<?xml version="1.0" encoding="UTF-8" standalone="no"?>
<svg viewBox="0 0 1000 1000" xmlns="http://www.w3.org/2000/svg" version="1.1">
  <path class="circle" d="M500,900 C700,900 900,700 900,500 900,280 700,100 500,100 280,100 100,280 100,500 100,700 280,900 500,900" fill="rgb(0,0,0)"></path>
  <path d="M560,210 C670,211 761,300 761,410 C761,476 728,534 678,571 C673,575 667,580 660,584 C652,589 642,593 633,595 C610,604 586,610 560,610 L510,610 L510,810 L330,810 L330,770 C364,745 367,721 371,700 L371,311 C371,296 364,260 330,250 L330,210 Z M555,589 L573,589 C567,587 573,589 567,587 C547,574 536,554 536,527 C536,503 545,484 561,473 C573,465 587,462 601,462 C630,462 653,486 653,514 C653,530 640,557 608,557 C601,557 598,557 587,550 C577,544 573,530 573,524 C573,519 577,514 583,514 C588,514 593,518 593,523 C593,528 595,531 598,534 C601,536 605,537 608,537 C611,537 618,535 623,532 C630,528 634,523 634,514 C634,497 619,482 601,482 C591,482 580,484 572,490 C562,497 556,509 556,527 C556,546 564,560 579,569 C589,576 603,580 610,580 C628,580 638,575 651,567 C670,556 681,541 681,519 C681,496 675,478 664,463 C620,470 575,454 532,411 L531,411 C574,366 620,351 665,359 C675,344 681,325 681,303 C681,282 670,266 651,255 C638,247 628,242 610,242 C603,242 589,246 579,253 C564,262 556,276 556,295 C556,313 562,325 572,333 C580,338 591,341 601,341 C619,341 634,325 634,308 C634,300 630,294 623,290 C618,287 611,286 608,286 C605,286 601,287 598,289 C595,291 593,294 593,300 C593,304 588,308 583,308 C577,308 573,304 573,298 C573,293 577,279 587,272 C598,266 601,266 608,266 C640,266 653,292 653,308 C653,336 630,361 601,361 C587,361 573,357 561,349 C545,338 536,320 536,295 C536,269 547,248 567,235 C576,230 579,230 579,230 L561,230 L510,230 L510,589 Z M400,240 L400,260 L415,260 L415,240 Z M460,680 L460,700 L475,700 L475,680 Z M460,240 L460,260 L475,260 L475,240 Z M400,320 L400,340 L415,340 L415,320 Z M460,320 L460,340 L475,340 L475,320 Z M400,390 L400,410 L415,410 L415,390 Z M460,390 L460,410 L475,410 L475,390 Z M400,460 L400,480 L415,480 L415,460 Z M460,460 L460,480 L475,480 L475,460 Z M400,530 L400,550 L415,550 L415,530 Z M460,530 L460,550 L475,550 L475,530 Z M400,610 L400,630 L415,630 L415,610 Z M460,610 L460,630 L475,630 L475,610 Z M400,680 L400,700 L415,700 L415,680 Z M726,410 C725,409 724,408 723,407 C709,396 694,386 677,381 C675,381 674,381 673,380 C660,394 643,404 623,411 C643,418 659,427 671,440 C673,440 675,439 677,438 C694,433 709,424 723,412 C724,411 725,411 726,410 Z M573,421 C587,431 601,437 615,441 C625,443 635,445 645,444 C628,432 603,424 573,421 Z M647,375 C637,375 626,376 616,379 C599,383 584,389 569,400 C570,400 571,400 572,400 C604,397 629,389 647,375 Z M702,528 C725,501 735,470 740,433 C740,433 741,428 739,425 L736,428 C721,441 704,451 685,457 C695,474 701,495 701,519 C701,524 700,528 700,532 Z M702,528" fill="rgb(255,255,255)"></path>
  <path d="M700,296 C723,323 733,354 738,391 C738,391 739,396 737,399 L734,396 C719,383 702,373 683,367 C693,350 699,329 699,305 C699,300 698,296 698,292 L700,296 L700,296 Z" fill="rgb(0,0,0)"></path>
</svg>