<?xml version="1.0" encoding="UTF-8" standalone="no"?>
<svg viewBox="0 0 1000 1000" xmlns="http://www.w3.org/2000/svg" version="1.1">
  <path d="M282,150 C333,150 663,150 716,150 C721,150 723,154 723,156 C721,176 707,242 716,258 C737,297 731,322 712,356 C700,376 700,407 700,407 C700,407 676,681 672,767 C668,854 658,850 640,850 L368,850 C351,850 341,854 335,767 C330,680 301,407 301,407 C301,407 301,376 289,356 C269,323 263,297 283,258 C292,242 278,177 276,156 C276,154 278,150 282,150 C282,150 278,150 282,150 L282,150" fill="rgb(0,0,0)"></path>
</svg>