<?xml version="1.0" encoding="UTF-8" standalone="no"?>
<svg viewBox="0 0 1000 1000" xmlns="http://www.w3.org/2000/svg" version="1.1">
  <path class="circle" d="M500,900 C700,900 900,700 900,500 900,280 700,100 500,100 280,100 100,280 100,500 100,700 280,900 500,900" fill="rgb(0,0,0)"></path>
  <path d="M300,200 L315,200 L315,600 L330,600 L330,200 L344,200 L344,600 L359,600 L359,200 L518,200 C628,200 718,289 718,400 C718,510 628,600 518,600 L462,600 L462,800 L369,800 L359,800 L344,800 L330,800 L315,800 L300,800 L300,600 L300,200 L300,200 Z M460,372 L460,372 L460,457 L502,457 L510,402 L506,402 L506,379 C506,370 513,363 522,363 C532,363 539,370 539,379 L539,402 L535,402 L544,457 L584,457 L584,372 L584,372 C584,337 556,310 522,310 C488,310 460,337 460,372 L460,372 Z M524,402 L519,402 L511,463 L535,463 L524,402 L524,402 Z M524,402" fill="rgb(255,255,255)"></path>
</svg>