<?xml version="1.0" encoding="UTF-8" standalone="no"?>
<svg viewBox="0 0 1000 1000" xmlns="http://www.w3.org/2000/svg" version="1.1">
  <path d="M427,160 C427,191 443,206 443,206 C443,206 458,222 448,232 C437,243 403,236 360,274 C350,284 331,294 306,347 C299,362 290,388 285,414 C280,434 279,454 276,469 C274,484 275,497 275,497 C275,497 266,499 266,515 C266,523 271,530 278,533 C285,536 294,535 299,535 C318,535 320,532 323,529 C326,525 327,521 328,515 C329,504 324,502 324,487 C324,478 325,454 335,425 C340,412 348,399 353,389 C368,356 384,349 384,349 C384,349 387,377 385,414 C383,453 374,501 364,533 C344,596 346,598 313,657 C279,718 237,774 237,774 C237,774 215,795 215,802 C215,805 220,811 225,819 C233,832 242,847 242,847 L263,889 C263,889 269,893 280,895 C303,898 326,898 326,898 C326,898 328,890 324,887 C320,885 311,883 311,883 L283,807 C283,807 337,751 375,703 C398,675 415,648 422,639 C440,615 441,597 459,589 C483,588 517,641 517,641 C517,641 556,709 572,744 C588,780 622,865 622,865 C622,865 630,897 638,899 C646,902 673,883 698,871 C723,859 750,855 750,847 C750,840 726,837 726,837 C726,837 665,833 662,830 C659,827 648,752 630,692 C611,631 587,593 570,558 C552,524 548,503 548,503 C548,503 543,483 541,461 C538,436 538,410 538,410 C538,410 533,375 541,375 C546,373 551,385 562,399 C572,413 593,436 609,451 C632,473 635,472 660,487 C679,497 699,502 705,503 L730,505 C732,505 734,504 736,503 C736,503 748,498 748,484 C747,470 748,467 740,457 C735,452 726,451 726,451 L715,456 C715,456 681,451 653,425 C637,410 635,410 622,378 C610,347 607,336 590,309 C574,282 559,268 544,257 C528,246 517,243 517,233 C517,224 526,217 526,217 C526,217 559,197 559,162 C559,127 533,100 494,100 C455,100 427,128 427,160 Z M427,160" fill="rgb(0,0,0)"></path>
</svg>