<?xml version="1.0" encoding="UTF-8" standalone="no"?>
<svg viewBox="0 0 1000 1000" xmlns="http://www.w3.org/2000/svg" version="1.1">
  <path class="circle" d="M500,900 C700,900 900,700 900,500 900,280 700,100 500,100 280,100 100,280 100,500 100,700 280,900 500,900" fill="rgb(0,0,0)"></path>
  <path d="M310,460 L390,460 L390,750 C425,750 454,724 459,690 L460,460 L540,460 L540,690 C545,724 574,750 609,750 L610,460 L690,460 L690,790 L591,790 C550,790 516,765 500,731 C484,764 450,790 410,790 L310,790 Z M378,410 C388,395 421,349 421,342 C421,337 410,333 404,324 C398,316 396,303 394,300 C390,294 389,294 386,288 C383,282 386,276 384,271 C382,265 372,258 372,258 C372,258 368,249 372,242 C374,238 378,228 384,221 C391,213 394,210 400,207 C408,202 430,201 437,212 C441,217 445,228 446,233 C446,238 448,246 450,251 C453,264 468,286 472,288 C477,292 557,288 564,290 C571,293 576,301 578,302 C580,301 583,300 585,299 C590,297 593,296 596,290 C596,290 600,276 595,269 C589,262 583,258 567,250 C551,242 539,240 526,243 C521,244 518,246 516,247 C515,248 515,249 515,251 C515,259 516,264 520,267 C521,268 526,268 533,268 C536,268 538,268 540,268 C542,265 547,264 552,264 C560,264 567,267 567,272 C567,276 560,280 552,280 C548,280 545,279 542,278 C539,278 536,278 534,278 C524,279 517,278 514,275 C510,272 507,268 506,263 C505,259 505,255 505,251 C505,242 510,236 524,233 C539,230 554,232 571,241 C589,249 596,255 603,264 C610,273 611,284 605,297 C602,304 598,307 592,311 C591,313 587,316 585,318 L583,324 L585,334 C585,334 609,362 611,369 C614,377 615,387 613,394 C611,399 606,406 603,410 L710,410 L710,430 L290,430 L290,410 Z M571,409 C571,407 572,404 575,401 C581,394 591,399 591,390 C591,381 553,343 542,341 C532,340 509,362 495,366 C480,370 465,366 457,364 C449,361 444,355 444,355 C444,355 427,391 423,399 C421,402 418,406 417,409 L571,409 L571,409 Z M395,240 C398,240 400,238 400,235 C400,232 398,230 395,230 C392,230 390,232 390,235 C390,238 392,240 395,240 L395,240 Z" fill="rgb(255,255,255)"></path>
</svg>